<svg width="208px" height="39px" viewBox="0 0 208 39" version="1.1" xmlns="http://www.w3.org/2000/svg" xmlns:xlink="http://www.w3.org/1999/xlink">
    <defs>
        <linearGradient x1="9.1249353%" y1="39.4383593%" x2="109.922037%" y2="77.0485567%" id="linearGradient-d7_wb83e3y-1">
            <stop stop-color="#0073FF" offset="0%"></stop>
            <stop stop-color="#00109D" offset="100%"></stop>
        </linearGradient>
    </defs>
    <g id="2021-12-09" stroke="none" stroke-width="1" fill="none" fill-rule="evenodd">
        <g id="login" transform="translate(-83.000000, -156.000000)" fill-rule="nonzero">
            <g id="logo_white" transform="translate(83.000000, 156.000000)">
                <path d="M15.8264529,3 L15.2092451,8.71190816 L22.8083258,8.71190816 L23.4254032,3 L29.2150795,3 L28.6073908,8.71190816 L37,8.71195336 L36.10165,14.3272012 L28.0101302,14.3270204 L27.122473,22.6726633 L34.977432,22.6727988 L34.0273886,28.2880467 L26.5252123,28.2877755 L25.9180228,34 L20.0766529,34 L20.6935291,28.2877755 L13.0944485,28.2877755 L12.4777026,34 L6.68802625,34 L7.30488387,28.2877755 L0,28.2880467 L0.950043422,22.6727988 L7.91164493,22.6726633 L8.81291946,14.3270204 L2.70762375,14.3272012 L3.65766717,8.71195336 L9.41968053,8.71190816 L10.0367765,3 L15.8264529,3 Z M16.5012966,11.5408163 L15.6806456,11.5408163 L15.5120152,13.3940944 L15.3920292,13.3940944 C14.4588977,13.3940944 13.6310498,14.1490587 13.5466124,15.0770409 L11.6830229,15.0773469 L11.6087636,15.8934694 L13.4723253,15.8934694 L13.373313,16.9816326 L11.5097513,16.9816326 L11.4354921,17.7977551 L13.2990537,17.7977551 L13.2000414,18.8859184 L11.3364797,18.8859184 L11.2622205,19.7020408 L13.1257821,19.7020408 L13.0267698,20.7902041 L11.1632081,20.7902041 L11.0889489,21.6063265 L12.9525105,21.6063265 C12.8680453,22.5346148 13.5585043,23.2895791 14.4916358,23.2895791 L14.6116218,23.2895791 L14.4429914,25.1428571 L15.2636424,25.1428571 L15.4322728,23.2895791 L16.5264741,23.2895791 L16.3578437,25.1428571 L17.1784948,25.1428571 L17.3471251,23.2895791 L18.4413265,23.2895791 L18.2726961,25.1428571 L19.0933471,25.1428571 L19.2619775,23.2895791 L20.3561788,23.2895791 L20.1875484,25.1428571 L21.0081994,25.1428571 L21.1768298,23.2895791 L21.3139127,23.2895791 C22.2470442,23.2895791 23.0748921,22.5346148 23.1593296,21.6066326 L25.0229191,21.6063265 L25.0971783,20.7902041 L23.2336167,20.7902041 L23.332629,19.7020408 L25.1961906,19.7020408 L25.2704499,18.8859184 L23.4068883,18.8859184 L23.5059006,17.7977551 L25.3694622,17.7977551 L25.4437215,16.9816326 L23.5801598,16.9816326 L23.6791722,15.8934694 L25.5427338,15.8934694 L25.6169931,15.0773469 L23.7534314,15.0773469 C23.8378967,14.1490587 23.1474377,13.3940944 22.2143062,13.3940944 L22.0772233,13.3940944 L22.2458537,11.5408163 L21.4252027,11.5408163 L21.2565723,13.3940944 L20.1623709,13.3940944 L20.3310013,11.5408163 L19.5103503,11.5408163 L19.3417199,13.3940944 L18.2475186,13.3940944 L18.416149,11.5408163 L17.595498,11.5408163 L17.4268676,13.3940944 L16.3326663,13.3940944 L16.5012966,11.5408163 Z M22.121465,14.4142474 C22.4889799,14.4142474 22.7608997,14.7115711 22.7276455,15.0770409 L22.1335158,21.6066326 C22.1002616,21.9721024 21.7742346,22.269426 21.4067368,22.269426 L14.5844598,22.269426 C14.2169621,22.269426 13.9450422,21.9721024 13.9782965,21.6066326 L14.5724262,15.0770409 C14.6056804,14.7115711 14.9317074,14.4142474 15.2992052,14.4142474 L22.121465,14.4142474 Z M21.7932176,15.3367347 L15.4595948,15.3367347 L14.9127243,21.3469388 L21.2463471,21.3469388 L21.7932176,15.3367347 Z" id="Combined-Shape" fill="url(#linearGradient-d7_wb83e3y-1)"></path>
                <path d="M6.01116335,3.51964185 C7.29644691,3.51962565 8.53260908,4.01084495 9.46414368,4.89176841 C9.53432638,4.95986016 9.64685658,4.95927863 9.7158837,4.89003738 L10.3864086,4.21666607 C10.4213171,4.18157864 10.4407533,4.13411367 10.4404348,4.08474845 C10.4401003,4.03538323 10.4200381,3.98817677 10.3846685,3.95354926 C7.93977967,1.62258645 4.08253912,1.62258645 1.63765028,3.95354926 C1.60228073,3.98817677 1.58221848,4.03538323 1.58188401,4.08474845 C1.58156553,4.13411367 1.60100167,4.18157864 1.63591015,4.21666607 L2.30644191,4.89003738 C2.37604681,4.95927863 2.48799242,4.95985339 2.5581751,4.89176841 C3.48974291,4.01089136 4.72588679,3.51967785 6.01116335,3.51963511 L6.01116335,3.51964185 Z M6.01116278,5.70997159 C6.71765255,5.70997159 7.39861824,5.97077586 7.92181735,6.44277271 C7.99267914,6.50999484 8.10458396,6.50845582 8.17355053,6.43931066 L8.84291994,5.76535784 C8.87828865,5.73012517 8.89796112,5.68224451 8.89753929,5.63245433 C8.89708959,5.58266415 8.87658205,5.53513151 8.84060206,5.50051678 C7.2464054,4.02540739 4.77766033,4.02540739 3.18346367,5.50051678 C3.14748066,5.53513084 3.12697054,5.58266444 3.12651946,5.63245629 C3.12609645,5.68224815 3.14576906,5.73013077 3.18113897,5.76536461 L3.85050837,6.4387359 C3.91963613,6.5077212 4.03154377,6.5090017 4.10224836,6.44161644 C4.62524343,5.97040947 5.30554397,5.70925322 6.01116278,5.70881532 L6.01116278,5.70997159 Z M7.29885346,7.31636891 C7.33462451,7.28134533 7.35428132,7.23318984 7.35318245,7.18327301 C7.35208361,7.13335619 7.33032653,7.08610287 7.29304855,7.05267061 C6.55307039,6.43000519 5.46924841,6.43000519 4.72927025,7.05267061 C4.69207034,7.08618428 4.67042062,7.13348261 4.66943244,7.18339865 C4.66844427,7.23331468 4.68820523,7.28142427 4.7240499,7.31636891 L5.88297152,8.47962217 C5.91695134,8.51369718 5.96320272,8.53286342 6.0114517,8.53286342 C6.05970065,8.53286342 6.10595203,8.51369718 6.13993188,8.47962217 L7.29826889,7.31636891 L7.29885346,7.31636891 Z" id="Shape" fill="#74B3FF" transform="translate(6.011159, 5.369095) rotate(-45.000000) translate(-6.011159, -5.369095) "></path>
                <polygon id="Path" fill="#08093A" points="58 7 54.5871358 32 48 32 51.4128642 7"></polygon>
                <path d="M69.9785765,14 C72.310651,14 74.1871561,14.3229883 75.6080917,14.9689648 C77.0290273,15.6149413 78.0011366,16.6517592 78.5244192,18.0794185 C79.0477019,19.5070777 79.1391578,21.4186042 78.7987864,23.8139979 C78.4827277,26.08031 77.9284847,27.885751 77.1360581,29.2303209 C76.3436315,30.5748909 75.2199509,31.5393132 73.765016,32.1235878 C72.3100812,32.7078627 70.4165764,33 68.0845022,33 C65.7767399,33 63.906313,32.6816488 62.4732211,32.0449464 C61.0401295,31.4082441 60.0511157,30.3807005 59.5061798,28.9623154 C58.9612441,27.5439304 58.8563025,25.6586177 59.1913555,23.3063774 C59.5260284,21.00259 60.0849247,19.1737742 60.8680443,17.8199301 C61.6511641,16.4660859 62.7810177,15.4909699 64.2576056,14.8945819 C65.7341934,14.298194 67.6411838,14 69.9785765,14 Z M69.8657526,18.5839161 C69.0607901,18.5839161 68.4236387,18.7215149 67.9542988,18.9967127 C67.4849589,19.2719104 67.1119182,19.7830325 66.8351764,20.5300789 C66.558435,21.2771253 66.314648,22.371765 66.1038153,23.8139979 C65.935909,25.0544697 65.8745588,26.0080091 65.9197643,26.674616 C65.9649699,27.3412228 66.1808358,27.7980246 66.5673621,28.0450212 C66.9538885,28.2920178 67.5348177,28.4155161 68.3101499,28.4155161 C69.101817,28.4155161 69.7229182,28.2751728 70.1734544,27.9944862 C70.6239903,27.7137997 70.9828806,27.2033401 71.250125,26.4631074 C71.5173695,25.7228747 71.753749,24.6706313 71.9592633,23.3063774 C72.1461636,22.0174526 72.2122623,21.0363746 72.1575598,20.3631433 C72.1028573,19.6899119 71.8963935,19.2250662 71.5381679,18.9686062 C71.1799425,18.7121461 70.6224707,18.5839161 69.8657526,18.5839161 Z" id="Shape" fill="#08093A"></path>
                <path d="M92.7794787,7 L89.2424315,32 L82.3951002,32 L85.9321473,7 L92.7794787,7 Z M100,7 L99.2690029,12.1800272 L78,12.1800272 L78.7395438,7 L100,7 Z" id="Shape" fill="#08093A"></path>
                <path d="M118.400313,7 C119.757989,7.00528756 121.192592,7.09366513 122.704121,7.26513269 C124.21565,7.43660029 125.647609,7.73950119 127,8.17383536 L126.393463,12.5694862 C125.646666,12.5396494 124.805857,12.5219927 123.871039,12.5165163 C122.936221,12.5110399 121.970065,12.5022589 120.972573,12.490173 C119.975081,12.4780872 118.981365,12.4720443 117.991424,12.4720443 C117.48777,12.4720443 117.051226,12.490173 116.681791,12.5264305 C116.312357,12.5626879 116.000876,12.6335033 115.74735,12.7388766 C115.493824,12.8442498 115.292212,13.0072196 115.142512,13.2277858 C114.992813,13.448352 114.885494,13.7403001 114.820555,14.1036301 C114.780157,14.4205052 114.795637,14.6991401 114.866994,14.9395346 C114.938351,15.1799292 115.112591,15.3970963 115.389715,15.5910359 C115.666837,15.7849756 116.077236,16.00828 116.620911,16.2609492 L120.981068,18.2137535 C122.331194,18.8225767 123.35115,19.4772883 124.040937,20.1778882 C124.730725,20.8784882 125.175575,21.6886159 125.375489,22.6082713 C125.575403,23.5279267 125.600038,24.6041313 125.449394,25.8368851 C125.226639,27.7245393 124.754133,29.1897562 124.031876,30.2325359 C123.309619,31.2753157 122.247472,31.9972548 120.845433,32.3983528 C119.443394,32.7994511 117.583479,33 115.265689,33 C114.29236,33 112.968286,32.9217255 111.293466,32.7651765 C109.618646,32.6086272 107.854157,32.3077091 106,31.8624222 L106.651277,27.0939993 C108.058035,27.1234585 109.322551,27.1563168 110.444823,27.1925743 C111.567096,27.2288317 112.511637,27.2516815 113.278445,27.2611235 C114.045252,27.2705656 114.607616,27.2752866 114.965535,27.2752866 C115.856935,27.2752866 116.560597,27.2266601 117.076522,27.129407 C117.592446,27.0321539 117.979059,26.8598365 118.236361,26.6124549 C118.493663,26.3650732 118.657426,26.0164728 118.72765,25.5666537 C118.792589,25.2010576 118.787964,24.9088262 118.713775,24.6899595 C118.639586,24.4710929 118.482619,24.2773421 118.242874,24.1087071 C118.003128,23.9400721 117.667485,23.7602011 117.235943,23.5690941 L112.57903,21.411775 C111.232302,20.7708488 110.214045,20.0740257 109.524258,19.3213057 C108.83447,18.5685856 108.392924,17.7371189 108.199617,16.8269055 C108.00631,15.9166921 107.972709,14.9375518 108.098811,13.8894845 C108.273617,12.5060357 108.605957,11.364681 109.095831,10.4654203 C109.585704,9.56615971 110.251894,8.86763702 111.094401,8.36985229 C111.936908,7.87206752 112.966964,7.51931261 114.184569,7.31158758 C115.402174,7.10386253 116.807422,7 118.400313,7 Z" id="Path" fill="#08093A"></path>
                <path d="M142.976991,13.7639509 C144.797903,13.7639509 146.137607,14.2009858 146.996103,15.0750558 C147.8546,15.9491257 148.16248,17.2021949 147.919743,18.8342634 L145.984055,32 L139.22136,32 L140.901128,20.6339285 C140.992639,20.0617559 140.966271,19.6857328 140.822025,19.5058593 C140.677779,19.3259858 140.372807,19.2360491 139.90711,19.2360491 C139.176574,19.2360491 138.440415,19.4103422 137.698634,19.7589285 C136.956852,20.1075149 136.027396,20.7064732 134.910265,21.5558035 L133.911013,18.6428571 C135.546576,16.9639137 137.133379,15.7310268 138.671422,14.9441964 C140.209464,14.1573661 141.644654,13.7639509 142.976991,13.7639509 Z M137.419448,7 L136.587125,12.811942 C136.424655,14.0221354 136.161173,15.1922433 135.79668,16.3222656 C135.432188,17.4522879 135.102787,18.3463541 134.808479,19.0044642 L135.578566,19.3666294 L133.763277,32 L127,32 L130.656753,7 L137.419448,7 Z" id="Shape" fill="#08093A"></path>
                <path d="M161.400875,14 C162.022368,14 162.741156,14.0322584 163.557239,14.0967752 C164.373322,14.161292 165.20005,14.2499316 166.037422,14.362694 C166.874794,14.4754565 167.646058,14.594368 168.351213,14.7194284 C169.056369,14.8444887 169.605964,14.9675625 170,15.0886498 L165.17129,18.5027417 C164.411231,18.4732267 163.700754,18.4543068 163.039857,18.4459821 C162.378961,18.4376573 161.662693,18.4334949 160.891056,18.4334949 C160.324467,18.4334949 159.825106,18.4841056 159.392974,18.585327 C158.960842,18.6865483 158.591644,18.8876666 158.285379,19.1886818 C157.979115,19.4896971 157.711694,19.9430174 157.483116,20.5486427 C157.254538,21.154268 157.069658,21.9616737 156.928478,22.97086 C156.744719,24.3266584 156.633792,25.3596838 156.595695,26.069936 C156.557599,26.7801882 156.647984,27.2594287 156.866851,27.5076575 C157.085718,27.7558863 157.460146,27.8705407 157.990133,27.8516208 C158.53618,27.8141595 159.117989,27.5796476 159.735561,27.1480852 C160.353132,26.7165228 160.958939,26.1501562 161.55298,25.4489856 C162.147021,24.7478149 162.675234,23.9796679 163.137619,23.1445445 L164.218322,25.0550737 C163.805612,26.6693177 163.182625,28.0536851 162.349361,29.2081761 C161.516097,30.362667 160.513828,31.2572934 159.342553,31.8920553 C158.171277,32.5268172 156.842388,32.8909302 155.355884,32.9843945 C153.710645,33.078237 152.467286,32.7488421 151.625805,31.9962091 C150.784325,31.2435765 150.274506,30.1100866 150.09635,28.5957396 C149.918194,27.0813926 149.987103,25.2433265 150.303078,23.0815413 C150.626897,20.9647854 151.097219,19.2962413 151.714043,18.0759093 C152.330868,16.8555771 153.102785,15.9553694 154.029796,15.3752859 C154.956806,14.7952025 156.037043,14.4209673 157.270505,14.2525804 C158.503966,14.0841935 159.880757,14 161.400875,14 Z M163.616624,14.5829214 L170,15.0886498 L167.570239,32.5484806 L162.53312,32.5484806 L162.534801,28.5395476 L161.712928,28.0241701 L163.616624,14.5829214 Z" id="Shape" fill="#08093A"></path>
                <path d="M179.45902,13.5040852 L179.668022,17.5693258 L180.234921,18.0414333 L178.439374,32 L172,32 L174.462811,13.5040852 L179.45902,13.5040852 Z M188,13 L186.658303,19.2001897 L185.175433,19.2001897 C184.449714,19.2001897 183.659934,19.3091078 182.806093,19.5269439 C181.952253,19.74478 180.850164,20.0860695 179.499828,20.5508124 L179.249466,16.7198813 C180.5862,15.4586023 181.894074,14.5233024 183.173089,13.9139814 C184.452104,13.3046605 185.666965,13 186.817674,13 L188,13 Z" id="Shape" fill="#08093A"></path>
                <path d="M202.87357,14 C204.235281,14 205.327487,14.3563338 206.150188,15.0690012 C206.972889,15.7816687 207.522725,16.8579841 207.799696,18.2979475 C208.076666,19.7379109 208.066401,21.5773432 207.7689,23.8162443 C207.519179,25.7104394 207.147489,27.2483946 206.653831,28.4301098 C206.160173,29.611825 205.557705,30.518038 204.846428,31.1487487 C204.13515,31.7794595 203.321594,32.2168124 202.405762,32.4608069 C201.489928,32.7048018 200.480869,32.8267991 199.378585,32.8267991 C198.805233,32.8267991 198.141174,32.7981051 197.38641,32.7407167 C196.631645,32.683328 195.857097,32.5953699 195.062766,32.476842 C194.268434,32.3583143 193.522908,32.1986206 192.826188,31.9977607 C192.129468,31.7969011 191.549864,31.553 191.087374,31.2660575 L191.828701,28.6773867 C192.778315,28.6882643 193.652622,28.697829 194.451619,28.7060809 C195.250617,28.7143329 196.162437,28.7184588 197.18708,28.7184588 C197.919448,28.7184588 198.510811,28.6543188 198.961169,28.5260386 C199.411526,28.3977585 199.766699,28.1645474 200.026686,27.8264054 C200.286673,27.4882635 200.4972,27.0050562 200.658269,26.3767835 C200.819338,25.7485109 200.970421,24.9343821 201.11152,23.9343971 C201.300397,22.6219637 201.39409,21.6183216 201.392596,20.9234708 C201.391104,20.22862 201.282387,19.748976 201.066447,19.4845389 C200.850506,19.2201017 200.505319,19.0878832 200.030885,19.0878832 C199.600124,19.0878832 199.105813,19.2149443 198.547952,19.4690665 C197.990091,19.7231887 197.431203,20.0663944 196.871289,20.4986834 C196.311375,20.9309725 195.806892,21.4218691 195.357841,21.9713733 L194.174742,19.417023 C194.462164,18.9807955 194.88574,18.4597043 195.445467,17.8537494 C196.005195,17.2477945 196.673452,16.6493413 197.45024,16.05839 C198.227028,15.4674386 199.077258,14.9766358 200.00093,14.5859815 C200.924601,14.1953272 201.882148,14 202.87357,14 Z M195.581806,14.4321015 L195.524695,18.8386371 L196.199392,19.3495071 L194.681464,31.3746455 L194.303522,31.9586577 C194.316587,32.5644252 194.306602,33.1679421 194.273566,33.7692082 C194.240532,34.3704747 194.16429,35.0165639 194.044842,35.7074761 L193.518522,39 L187,39 L190.409318,14.4321015 L195.581806,14.4321015 Z" id="Shape" fill="#08093A"></path>
            </g>
        </g>
    </g>
</svg>
